<svg width="48" height="47" viewBox="0 0 48 47" fill="none" xmlns="http://www.w3.org/2000/svg">
<rect x="1.53333" y="2.0332" width="42.9333" height="12.2667" rx="6.13333" fill="url(#paint0_linear_572)"/>
<rect x="1.53333" y="32.6997" width="42.9333" height="12.2667" rx="6.13333" fill="url(#paint1_linear_572)"/>
<rect x="1.53333" y="44.9668" width="42.9333" height="12.2667" rx="6.13333" transform="rotate(-90 1.53333 44.9668)" fill="url(#paint2_linear_572)"/>
<rect x="33.7333" y="44.9668" width="42.9333" height="12.2667" rx="6.13333" transform="rotate(-90 33.7333 44.9668)" fill="url(#paint3_linear_572)"/>
<rect x="1.53333" y="2.0332" width="12.2667" height="12.2667" rx="6.13333" fill="#0AE33A"/>
<rect x="33.7333" y="2.0332" width="12.2667" height="12.2667" rx="6.13333" fill="#0AE33A"/>
<rect x="1.53333" y="32.6997" width="12.2667" height="12.2667" rx="6.13333" fill="#0AE33A"/>
<rect x="32.2" y="32.6997" width="12.2667" height="12.2667" rx="6.13333" fill="#0AE33A"/>
<defs>
<linearGradient id="paint0_linear_572" x1="44.4667" y1="8.16653" x2="1.53333" y2="8.16653" gradientUnits="userSpaceOnUse">
<stop stop-color="#B3D3FA"/>
<stop offset="1" stop-color="#B3D3FA" stop-opacity="0"/>
</linearGradient>
<linearGradient id="paint1_linear_572" x1="44.4667" y1="38.833" x2="1.53333" y2="38.833" gradientUnits="userSpaceOnUse">
<stop stop-color="#B3D3FA"/>
<stop offset="1" stop-color="#B3D3FA" stop-opacity="0"/>
</linearGradient>
<linearGradient id="paint2_linear_572" x1="44.4667" y1="51.1001" x2="1.53333" y2="51.1001" gradientUnits="userSpaceOnUse">
<stop stop-color="#B3D3FA"/>
<stop offset="1" stop-color="#B3D3FA" stop-opacity="0"/>
</linearGradient>
<linearGradient id="paint3_linear_572" x1="76.6666" y1="51.1001" x2="33.7333" y2="51.1001" gradientUnits="userSpaceOnUse">
<stop stop-color="#B3D3FA"/>
<stop offset="1" stop-color="#B3D3FA" stop-opacity="0"/>
</linearGradient>
</defs>
</svg>
