<svg width="22" height="20" viewBox="0 0 22 20" fill="none" xmlns="http://www.w3.org/2000/svg">
<path fill-rule="evenodd" clip-rule="evenodd" d="M21.929 2.95566C21.1258 3.33186 20.2611 3.58627 19.3541 3.69994C20.2804 3.11534 20.9911 2.18839 21.326 1.08416C20.4587 1.62545 19.5003 2.01923 18.4765 2.23034C17.6605 1.3115 16.4943 0.737732 15.2037 0.737732C12.7288 0.737732 10.721 2.85553 10.721 5.46724C10.721 5.83803 10.7594 6.19798 10.8364 6.54441C7.10941 6.34684 3.80576 4.46586 1.59264 1.60109C1.20647 2.30206 0.985801 3.11534 0.985801 3.98141C0.985801 5.62151 1.77739 7.06946 2.98082 7.91793C2.24696 7.89492 1.55416 7.67976 0.948595 7.32792V7.38611C0.948595 9.67847 2.49457 11.5906 4.54732 12.0236C4.17141 12.1346 3.77497 12.1901 3.36571 12.1901C3.07704 12.1901 2.79479 12.1616 2.52151 12.1062C3.09243 13.9844 4.74746 15.3525 6.7104 15.3891C5.17597 16.6584 3.24126 17.4148 1.14104 17.4148C0.779243 17.4148 0.421295 17.3932 0.0710449 17.3499C2.0558 18.6896 4.41389 19.4731 6.94519 19.4731C15.1947 19.4731 19.7043 12.2672 19.7043 6.01665C19.7043 5.81096 19.7005 5.60527 19.6928 5.40364C20.569 4.7365 21.3298 3.90427 21.929 2.95566Z" fill="#1DA1F2"/>
</svg>
