<svg width="26" height="20" viewBox="0 0 26 20" fill="none" xmlns="http://www.w3.org/2000/svg">
<path d="M21.5669 2.27541C19.9298 1.54671 18.2015 1.02975 16.4262 0.737732C16.1832 1.15995 15.9634 1.59436 15.7676 2.03914C13.8766 1.76209 11.9535 1.76209 10.0624 2.03914C9.86653 1.5944 9.64672 1.16 9.40388 0.737732C7.62742 1.03222 5.89797 1.55041 4.25918 2.27922C1.00577 6.95894 0.123825 11.5224 0.564799 16.0211C2.47008 17.3897 4.60263 18.4305 6.86975 19.0984C7.38024 18.4309 7.83196 17.7227 8.22011 16.9815C7.48287 16.7138 6.7713 16.3835 6.09364 15.9945C6.27199 15.8687 6.44642 15.7391 6.61497 15.6134C8.5868 16.5149 10.739 16.9823 12.918 16.9823C15.097 16.9823 17.2491 16.5149 19.2209 15.6134C19.3915 15.7487 19.5659 15.8782 19.7423 15.9945C19.0633 16.3841 18.3504 16.715 17.6119 16.9834C17.9996 17.7243 18.4513 18.4318 18.9622 19.0984C21.2313 18.4332 23.3655 17.3929 25.2711 16.023C25.7885 10.806 24.3872 6.28442 21.5669 2.27541ZM8.77868 13.2545C7.54983 13.2545 6.53461 12.1703 6.53461 10.8365C6.53461 9.50268 7.51455 8.40896 8.77476 8.40896C10.035 8.40896 11.0423 9.50268 11.0208 10.8365C10.9992 12.1703 10.031 13.2545 8.77868 13.2545ZM17.0572 13.2545C15.8264 13.2545 14.8151 12.1703 14.8151 10.8365C14.8151 9.50268 15.7951 8.40896 17.0572 8.40896C18.3194 8.40896 19.3189 9.50268 19.2974 10.8365C19.2758 12.1703 18.3096 13.2545 17.0572 13.2545Z" fill="#5865F2"/>
</svg>
