<svg width="20" height="20" viewBox="0 0 20 20" fill="none" xmlns="http://www.w3.org/2000/svg">
<path fill-rule="evenodd" clip-rule="evenodd" d="M18.9812 0.829535C19.1953 1.01314 19.2871 1.24265 19.2565 1.51806L16.641 17.2623C16.6104 17.4459 16.5033 17.5989 16.3197 17.7213C16.1974 17.7519 16.0903 17.7672 15.9985 17.7672C15.9068 17.7672 15.815 17.7519 15.7232 17.7213L11.0886 15.8394L8.61068 18.8689C8.48831 19.0219 8.32006 19.0984 8.10592 19.0984C8.01414 19.0984 7.93766 19.0831 7.87648 19.0525C7.75411 19.0219 7.64704 18.9454 7.55527 18.823C7.46349 18.7006 7.4329 18.5782 7.46349 18.4558V14.8754L16.3197 3.99675L5.35268 13.4984L1.3146 11.8459C1.06986 11.7541 0.932203 11.5552 0.901611 11.2492C0.901611 11.0044 1.00868 10.8055 1.22282 10.6525L18.2929 0.829535C18.3847 0.768333 18.4917 0.737732 18.6141 0.737732C18.7365 0.737732 18.8588 0.768333 18.9812 0.829535Z" fill="#0088CC"/>
</svg>
