<svg width="54" height="53" viewBox="0 0 54 53" fill="none" xmlns="http://www.w3.org/2000/svg">
<rect x="11.3762" y="17.5356" width="34.7044" height="12.2667" rx="6.13333" transform="rotate(45 11.3762 17.5356)" fill="url(#paint0_linear_572)"/>
<rect x="35.9154" y="10.8765" width="34.7044" height="12.2667" rx="6.13333" transform="rotate(135 35.9154 10.8765)" fill="url(#paint1_linear_572)"/>
<rect x="26.7095" y="2.20215" width="34.7044" height="12.2667" rx="6.13333" transform="rotate(45 26.7095 2.20215)" fill="url(#paint2_linear_572)"/>
<rect x="18.0356" y="42.0752" width="34.7044" height="12.2667" rx="6.13334" transform="rotate(-45 18.0356 42.0752)" fill="url(#paint3_linear_572)"/>
<rect x="5.53333" y="20.3667" width="12.2667" height="12.2667" rx="6.13333" fill="#0AE33A"/>
<rect x="20.8667" y="5.0332" width="12.2667" height="12.2667" rx="6.13333" fill="#0AE33A"/>
<rect x="20.8667" y="35.6997" width="12.2667" height="12.2667" rx="6.13333" fill="#0AE33A"/>
<rect x="36.2" y="20.3667" width="12.2667" height="12.2667" rx="6.13333" fill="#0AE33A"/>
<defs>
<linearGradient id="paint0_linear_572" x1="46.0807" y1="23.669" x2="11.3762" y2="23.669" gradientUnits="userSpaceOnUse">
<stop stop-color="#B3D3FA"/>
<stop offset="1" stop-color="#B3D3FA" stop-opacity="0"/>
</linearGradient>
<linearGradient id="paint1_linear_572" x1="70.6198" y1="17.0098" x2="35.9154" y2="17.0098" gradientUnits="userSpaceOnUse">
<stop stop-color="#B3D3FA"/>
<stop offset="1" stop-color="#B3D3FA" stop-opacity="0"/>
</linearGradient>
<linearGradient id="paint2_linear_572" x1="61.4139" y1="8.33548" x2="26.7095" y2="8.33548" gradientUnits="userSpaceOnUse">
<stop stop-color="#B3D3FA"/>
<stop offset="1" stop-color="#B3D3FA" stop-opacity="0"/>
</linearGradient>
<linearGradient id="paint3_linear_572" x1="52.7401" y1="48.2085" x2="18.0356" y2="48.2085" gradientUnits="userSpaceOnUse">
<stop stop-color="#B3D3FA"/>
<stop offset="1" stop-color="#B3D3FA" stop-opacity="0"/>
</linearGradient>
</defs>
</svg>
