<svg width="336" height="336" viewBox="0 0 336 336" fill="none" xmlns="http://www.w3.org/2000/svg" preserveAspectRatio="none">
<g clip-path="url(#clip0_645_1820)">
<rect width="336" height="336" fill="#003371"/>
<g opacity="0.5">
<path d="M304.825 399.889C336.449 432.034 378.524 451.813 423.453 455.655C468.382 459.497 513.204 447.149 549.827 420.84C586.449 394.53 612.458 355.994 623.158 312.189C633.858 268.384 628.543 222.196 608.173 181.966" stroke="#1B77E7" stroke-width="56" stroke-linecap="round"/>
<path d="M305.016 400.084C273.271 367.815 254.065 325.303 250.865 280.223C247.666 235.143 260.684 190.467 287.57 154.26C314.456 118.054 353.437 92.7032 397.475 82.786" stroke="#FFD600" stroke-width="56" stroke-linecap="round"/>
</g>
<g opacity="0.5">
<path d="M-134.031 -2.60602C-108.07 34.2638 -69.7814 60.6364 -26.0793 71.7502C17.6228 82.8639 63.8584 77.9863 104.279 57.9981C144.7 38.0098 176.643 4.22823 194.34 -37.2473C212.036 -78.7228 214.321 -125.159 200.78 -168.171" stroke="#1B77E7" stroke-width="56" stroke-linecap="round"/>
<path d="M-133.874 -2.38267C-159.935 -39.3942 -171.956 -84.4684 -167.765 -129.467C-163.573 -174.465 -143.447 -216.422 -111.019 -247.762C-78.5918 -279.103 -36 -297.76 9.06582 -300.367" stroke="#FFD600" stroke-width="56" stroke-linecap="round"/>
</g>
<path d="M104.705 208.691C71.0503 178.678 27.7742 161.687 -17.3099 160.786C-62.3939 159.884 -106.315 175.131 -141.142 203.774C-175.97 232.418 -199.409 272.569 -207.227 316.979C-215.045 361.39 -206.727 407.132 -183.775 445.947" stroke="#1B77E7" stroke-width="56" stroke-linecap="round"/>
<path d="M104.501 208.509C138.284 238.638 160.224 279.806 166.359 324.581C172.493 369.355 162.418 414.786 137.953 452.67C113.487 490.554 76.2433 518.395 32.9461 531.165" stroke="#FFD600" stroke-width="56" stroke-linecap="round"/>
<path fill-rule="evenodd" clip-rule="evenodd" d="M123.474 187.913C134.89 198.223 135.855 215.831 125.602 227.327C115.31 238.869 97.6098 239.881 86.0686 229.588C86.0212 229.546 85.9738 229.504 85.9263 229.462C85.9057 229.443 85.8851 229.425 85.8645 229.407C74.3233 219.114 73.3109 201.414 83.6034 189.873C93.868 178.363 111.5 177.325 123.043 187.529C123.09 187.571 123.137 187.613 123.184 187.655C123.281 187.741 123.378 187.827 123.474 187.913Z" fill="#0ABE00"/>
<path d="M186.934 107.668C230.331 119.92 276.678 116.253 317.608 97.3277C358.537 78.4028 391.352 45.4677 410.127 4.46894C428.901 -36.5298 432.399 -82.8902 419.988 -126.242C407.576 -169.593 380.074 -207.079 342.447 -231.93" stroke="#1B77E7" stroke-width="56" stroke-linecap="round"/>
<path d="M187.197 107.742C143.634 95.4422 105.886 68.0322 80.7707 30.4606C55.655 -7.11094 44.8262 -52.3681 50.2394 -97.1392C55.6526 -141.91 76.9512 -183.245 110.289 -213.68" stroke="#FFD600" stroke-width="56" stroke-linecap="round"/>
<path fill-rule="evenodd" clip-rule="evenodd" d="M179.154 134.565C164.377 130.293 155.802 114.885 159.988 100.06C164.189 85.1778 179.66 76.5195 194.542 80.7213C194.603 80.7385 194.664 80.7557 194.725 80.7729C194.752 80.7804 194.779 80.7879 194.805 80.7954C209.687 84.9972 218.346 100.468 214.144 115.35C209.953 130.192 194.555 138.844 179.71 134.722C179.649 134.705 179.588 134.688 179.528 134.671C179.403 134.636 179.279 134.601 179.154 134.565Z" fill="#0ABE00"/>
</g>
<defs>
<clipPath id="clip0_645_1820">
<rect width="336" height="336" fill="white"/>
</clipPath>
</defs>
</svg>
