<svg width="89" height="27" viewBox="0 0 89 27" fill="none" xmlns="http://www.w3.org/2000/svg">
<g clip-path="url(#clip0_478:3873)">
<path d="M23.4977 0H3.91628C1.75338 0 0 1.7269 0 3.85714V23.1429C0 25.2731 1.75338 27 3.91628 27H23.4977C25.6606 27 27.414 25.2731 27.414 23.1429V3.85714C27.414 1.7269 25.6606 0 23.4977 0Z" fill="#003371"/>
<path d="M20.6314 6.68016C20.4269 6.47861 20.184 6.31873 19.9167 6.20966C19.6494 6.10058 19.3628 6.04443 19.0735 6.04443C18.7841 6.04443 18.4976 6.10058 18.2303 6.20966C17.963 6.31873 17.7201 6.47861 17.5156 6.68016L12.1503 11.9644C11.9456 12.1659 11.7833 12.4051 11.6726 12.6684C11.5618 12.9317 11.5048 13.2139 11.5048 13.4989C11.5048 13.7838 11.5618 14.066 11.6726 14.3293C11.7833 14.5926 11.9456 14.8318 12.1503 15.0333L17.5156 20.3176C17.7201 20.5191 17.963 20.679 18.2303 20.7881C18.4976 20.8972 18.7841 20.9533 19.0735 20.9533C19.3628 20.9533 19.6494 20.8972 19.9167 20.7881C20.184 20.679 20.4269 20.5191 20.6314 20.3176V20.3176C20.8361 20.1161 20.9984 19.8769 21.1091 19.6136C21.2199 19.3503 21.2769 19.0681 21.2769 18.7832C21.2769 18.4982 21.2199 18.216 21.1091 17.9527C20.9984 17.6894 20.8361 17.4502 20.6314 17.2487L17.3418 14.0111C17.2733 13.944 17.219 13.8641 17.1819 13.7762C17.1449 13.6883 17.1258 13.5941 17.1258 13.4989C17.1258 13.4037 17.1449 13.3094 17.1819 13.2215C17.219 13.1336 17.2733 13.0538 17.3418 12.9866L20.6314 9.749C20.8361 9.54752 20.9984 9.30831 21.1091 9.04503C21.2199 8.78175 21.2769 8.49956 21.2769 8.21458C21.2769 7.9296 21.2199 7.64741 21.1091 7.38413C20.9984 7.12085 20.8361 6.88164 20.6314 6.68016Z" fill="#04795B"/>
<path d="M17.5147 20.3169C18.375 21.1642 19.7698 21.1642 20.6301 20.3169C21.4904 19.4696 21.4904 18.0958 20.6301 17.2485L15.2647 11.9642C14.4044 11.1169 13.0096 11.1169 12.1493 11.9642C11.2891 12.8115 11.2891 14.1852 12.1493 15.0325L17.5147 20.3169Z" fill="#0DB50A"/>
<path d="M15.2661 11.9644L9.90086 6.68016C9.69629 6.47861 9.45341 6.31873 9.18609 6.20966C8.91878 6.10058 8.63226 6.04443 8.34291 6.04443C8.05356 6.04443 7.76699 6.10058 7.49967 6.20966C7.23235 6.31873 6.98948 6.47861 6.78491 6.68016C6.58027 6.88164 6.41796 7.12085 6.30721 7.38413C6.19645 7.64741 6.13947 7.9296 6.13947 8.21458C6.13947 8.49956 6.19645 8.78175 6.30721 9.04503C6.41796 9.30831 6.58027 9.54752 6.78491 9.749L10.0722 12.9866C10.1406 13.0538 10.1949 13.1336 10.232 13.2215C10.269 13.3094 10.2881 13.4037 10.2881 13.4989C10.2881 13.5941 10.269 13.6883 10.232 13.7762C10.1949 13.8641 10.1406 13.944 10.0722 14.0111L6.78491 17.2487C6.58027 17.4502 6.41796 17.6894 6.30721 17.9527C6.19645 18.216 6.13947 18.4982 6.13947 18.7832C6.13947 19.0681 6.19645 19.3503 6.30721 19.6136C6.41796 19.8769 6.58027 20.1161 6.78491 20.3176V20.3176C6.98948 20.5191 7.23235 20.679 7.49967 20.7881C7.76699 20.8972 8.05356 20.9533 8.34291 20.9533C8.63226 20.9533 8.91878 20.8972 9.18609 20.7881C9.45341 20.679 9.69629 20.5191 9.90086 20.3176L13.7069 16.5665L15.2661 15.0333C15.4708 14.8318 15.6331 14.5926 15.7438 14.3293C15.8546 14.066 15.9116 13.7838 15.9116 13.4989C15.9116 13.2139 15.8546 12.9317 15.7438 12.6684C15.6331 12.4051 15.4708 12.1659 15.2661 11.9644V11.9644Z" fill="#0AE33A"/>
<path d="M19.0723 10.3852C20.2889 10.3852 21.2752 9.4138 21.2752 8.21554C21.2752 7.01728 20.2889 6.0459 19.0723 6.0459C17.8557 6.0459 16.8694 7.01728 16.8694 8.21554C16.8694 9.4138 17.8557 10.3852 19.0723 10.3852Z" fill="#0AE33A"/>
<path d="M46.0017 12.6874L50.1186 7.22229C50.1688 7.1512 50.1986 7.06811 50.2049 6.98176C50.2112 6.8954 50.1938 6.80897 50.1545 6.73153C50.1152 6.6541 50.0554 6.58852 49.9815 6.54167C49.9075 6.49483 49.8222 6.46847 49.7344 6.46533H47.5143C47.1665 6.46581 46.8241 6.54968 46.5167 6.70971C46.2092 6.86973 45.9459 7.1011 45.7495 7.38381L43.6347 10.4406C43.6153 10.4694 43.589 10.4931 43.558 10.5095C43.527 10.5258 43.4924 10.5344 43.4573 10.5344C43.4222 10.5344 43.3876 10.5258 43.3566 10.5095C43.3256 10.4931 43.2992 10.4694 43.2798 10.4406L41.2409 7.41033C41.0462 7.12083 40.7819 6.88326 40.4714 6.7188C40.161 6.55434 39.814 6.46809 39.4614 6.46774H36.9061C36.8176 6.47072 36.7317 6.49725 36.6573 6.54452C36.583 6.59179 36.523 6.65802 36.4839 6.73617C36.4447 6.81432 36.4277 6.90147 36.4349 6.98834C36.442 7.07522 36.4728 7.15856 36.5242 7.22952L40.7464 12.6898C40.8862 12.8725 40.9619 13.095 40.9619 13.3238C40.9619 13.5526 40.8862 13.7751 40.7464 13.9578L36.3186 19.7773C36.2685 19.8484 36.2386 19.9315 36.2323 20.0178C36.226 20.1042 36.2435 20.1906 36.2828 20.2681C36.3221 20.3455 36.3818 20.4111 36.4558 20.4579C36.5297 20.5048 36.6151 20.5311 36.7029 20.5343H38.967C39.3134 20.5344 39.6547 20.4515 39.9613 20.2928C40.2679 20.134 40.5307 19.9042 40.7269 19.623L43.0938 16.248C43.1134 16.2202 43.1396 16.1974 43.17 16.1817C43.2005 16.166 43.2344 16.1578 43.2688 16.1578C43.3032 16.1578 43.3371 16.166 43.3676 16.1817C43.3981 16.1974 43.4242 16.2202 43.4438 16.248L45.8548 19.6447C46.0521 19.9214 46.3141 20.1473 46.6187 20.3034C46.9233 20.4594 47.2615 20.5411 47.6048 20.5415H50.0525C50.1404 20.5384 50.2258 20.512 50.2997 20.4651C50.3736 20.4183 50.4334 20.3527 50.4727 20.2753C50.512 20.1978 50.5294 20.1114 50.5231 20.0251C50.5168 19.9387 50.487 19.8556 50.4368 19.7845L45.9943 13.953C45.8554 13.7701 45.7809 13.5474 45.7822 13.319C45.7836 13.0905 45.8606 12.8688 46.0017 12.6874V12.6874Z" fill="#003371"/>
<path d="M65.4974 1.11407V19.9731C65.4974 20.101 65.4458 20.2236 65.354 20.314C65.2622 20.4044 65.1377 20.4552 65.0079 20.4552H62.8882C62.7878 20.4538 62.6903 20.4221 62.6089 20.3643C62.5274 20.3066 62.466 20.2255 62.4329 20.1322L62.1 19.1679C62.088 19.133 62.0668 19.1019 62.0386 19.0776C62.0104 19.0534 61.9762 19.0369 61.9394 19.0298C61.9027 19.0227 61.8647 19.0253 61.8293 19.0372C61.7939 19.0492 61.7623 19.0702 61.7377 19.098C61.0034 19.9104 59.7307 20.7349 57.7554 20.7349C53.9615 20.7349 51.1002 17.8902 51.1002 13.4545C51.1002 8.90791 54.0374 6.22238 57.7554 6.22238C59.4198 6.22238 60.6926 6.78407 61.5126 7.47595C61.5437 7.50172 61.5816 7.51817 61.6219 7.52339C61.6622 7.5286 61.7032 7.52235 61.74 7.50536C61.7768 7.48838 61.8079 7.46137 61.8296 7.42754C61.8514 7.39371 61.8628 7.35446 61.8626 7.31443V2.74372C61.8626 2.18555 62.0877 1.65025 62.4885 1.25557C62.8892 0.860886 63.4327 0.63916 63.9994 0.63916H65.0079C65.1364 0.639146 65.2599 0.688948 65.3515 0.777809C65.4431 0.86667 65.4955 0.987456 65.4974 1.11407ZM61.8699 13.4449C61.8699 10.9908 60.4821 9.31532 58.3306 9.31532C56.1791 9.31532 54.7325 11.0028 54.7325 13.4449C54.7325 15.9544 56.1766 17.6299 58.3306 17.6299C60.4845 17.6299 61.8748 15.9544 61.8748 13.4449H61.8699Z" fill="#003371"/>
<path d="M87.3258 6.5376H88.3343C88.4641 6.5376 88.5886 6.58839 88.6804 6.67881C88.7722 6.76923 88.8238 6.89187 88.8238 7.01974V18.3911C88.8238 18.6673 88.7685 18.9409 88.6611 19.1961C88.5537 19.4513 88.3962 19.6831 88.1978 19.8784C87.9993 20.0736 87.7638 20.2284 87.5045 20.3339C87.2453 20.4394 86.9675 20.4935 86.687 20.4932H85.6785C85.5487 20.4932 85.4242 20.4424 85.3324 20.352C85.2406 20.2616 85.189 20.139 85.189 20.0111V8.6301C85.1922 8.07402 85.4188 7.54181 85.8192 7.14974C86.2196 6.75766 86.7612 6.53759 87.3258 6.5376V6.5376Z" fill="#003371"/>
<path d="M87.1373 0.892095H88.5154C88.6452 0.892095 88.7697 0.942892 88.8615 1.03331C88.9533 1.12373 89.0049 1.24637 89.0049 1.37424V2.73147C89.001 3.28796 88.7735 3.82028 88.3721 4.21198C87.9708 4.60367 87.4282 4.82285 86.8632 4.82156H85.4851C85.3553 4.82156 85.2308 4.77076 85.139 4.68034C85.0472 4.58992 84.9956 4.46729 84.9956 4.33942V2.99665C84.9956 2.71987 85.051 2.44581 85.1587 2.19016C85.2664 1.93451 85.4243 1.70229 85.6232 1.5068C85.8221 1.31131 86.0583 1.15639 86.3181 1.05091C86.5779 0.945429 86.8563 0.891461 87.1373 0.892095V0.892095Z" fill="#003371"/>
<path d="M82.0438 6.69219V19.9728C82.0438 20.1007 81.9921 20.2233 81.9003 20.3137C81.8085 20.4042 81.6841 20.455 81.5542 20.455H79.4883C79.3764 20.4532 79.2685 20.4137 79.1825 20.3431C79.0965 20.2725 79.0378 20.175 79.0159 20.0668L78.8201 19.0375C78.8127 18.9985 78.7941 18.9624 78.7667 18.9333C78.7392 18.9043 78.704 18.8835 78.665 18.8734C78.6261 18.8633 78.585 18.8643 78.5466 18.8763C78.5082 18.8883 78.474 18.9107 78.4481 18.941C77.7138 19.8402 76.3456 20.7322 74.3311 20.7322C70.5348 20.7322 67.644 17.8875 67.644 13.4518C67.644 8.90522 70.6204 6.21969 74.3311 6.21969C75.7306 6.18399 77.0959 6.64904 78.174 7.5287C78.2012 7.55325 78.2346 7.5703 78.2706 7.57813C78.3067 7.58595 78.3443 7.58429 78.3795 7.57329C78.4148 7.5623 78.4465 7.54236 78.4714 7.51549C78.4963 7.48862 78.5136 7.45577 78.5215 7.42022L78.7198 6.58612C78.7457 6.48278 78.8056 6.39079 78.8902 6.32451C78.9748 6.25822 79.0792 6.22137 79.1873 6.21969H81.5542C81.6824 6.21966 81.8054 6.26914 81.8969 6.35748C81.9885 6.44582 82.0412 6.566 82.0438 6.69219V6.69219ZM78.4481 13.4422C78.4481 10.9881 77.0309 9.31264 74.9063 9.31264C72.7817 9.31264 71.2813 11.0001 71.2813 13.4422C71.2813 15.9517 72.7499 17.6272 74.9063 17.6272C77.0627 17.6272 78.4481 15.9541 78.4481 13.4446V13.4422Z" fill="#003371"/>
</g>
<defs>
<clipPath id="clip0_478:3873">
<rect width="89" height="27" fill="white"/>
</clipPath>
</defs>
</svg>
